<?xml version="1.0" encoding="utf-8"?>
<!-- Generator: Adobe Illustrator 27.2.0, SVG Export Plug-In . SVG Version: 6.00 Build 0)  -->
<svg version="1.1" id="Layer_1" xmlns="http://www.w3.org/2000/svg" xmlns:xlink="http://www.w3.org/1999/xlink" x="0px" y="0px"
	 viewBox="0 0 512 512" style="enable-background:new 0 0 512 512;" xml:space="preserve">
<style type="text/css">
	.st0{fill:url(#SVGID_1_);}
	.st1{fill:url(#SVGID_00000065047401604989305540000015316647871796824482_);}
	.st2{fill:url(#SVGID_00000152234283408627721530000015311326070883479451_);}
	.st3{fill:url(#SVGID_00000089544867206878094610000016732447915775948180_);}
	.st4{fill:url(#SVGID_00000161630728243532512530000014129645988645977222_);}
	.st5{fill:url(#SVGID_00000045604052683745828350000011802236346577771421_);}
	.st6{fill:url(#SVGID_00000051351772470757666650000004461783794018901427_);}
	.st7{fill:url(#SVGID_00000062908523907467244020000007959897291960950943_);}
	.st8{fill:url(#SVGID_00000057115904739058296620000010367744446304905895_);}
	.st9{fill:url(#SVGID_00000114063773318175771810000003567788931610255527_);}
	.st10{fill:url(#SVGID_00000048477690369975788220000016757412317090186157_);}
	.st11{fill:url(#SVGID_00000039118123912968554860000015338465581564030081_);}
</style>
<g>
	
		<linearGradient id="SVGID_1_" gradientUnits="userSpaceOnUse" x1="185.2022" y1="254.5013" x2="325.4518" y2="343.8763" gradientTransform="matrix(1 0 0 -1 0 511.8898)">
		<stop  offset="0" style="stop-color:#D5CFE3"/>
		<stop  offset="0.8532" style="stop-color:#F0EEF5"/>
		<stop  offset="1" style="stop-color:#FFFFFF"/>
	</linearGradient>
	<path class="st0" d="M227.5,307.3c0,14.3,12.6,26,28.1,26s28.1-11.6,28.1-26.1v-18.7c0-1.2,0.8-2.3,2-2.7
		c36.8-11.6,62.4-43.9,62.4-80.8v-13.8c0-46.6-40.6-85.5-90.5-86.5c-25.1-0.5-48.7,8.2-66.7,24.3c-17.8,16.2-27.8,37.9-27.8,61.1
		c0,14.4,12.7,26.1,28.2,26.1s28.1-11.6,28.1-26c0-9,3.8-17.6,10.8-23.9c7-6.4,16.2-9.8,26.1-9.6c19.6,0.4,35.5,15.9,35.5,34.6V205
		c0,16.2-12.4,30-29.5,33c-20.2,3.4-34.9,19.7-34.9,38.7V307.3z"/>
	
		<linearGradient id="SVGID_00000179634463510993598950000003138628286618735509_" gradientUnits="userSpaceOnUse" x1="255.5932" y1="178.669" x2="255.5932" y2="407.2231" gradientTransform="matrix(1 0 0 -1 0 511.8898)">
		<stop  offset="0" style="stop-color:#D1C8E4"/>
		<stop  offset="1" style="stop-color:#D1C8E4;stop-opacity:0"/>
	</linearGradient>
	<path style="fill:url(#SVGID_00000179634463510993598950000003138628286618735509_);" d="M227.5,307.3c0,14.3,12.6,26,28.1,26
		s28.1-11.6,28.1-26.1v-18.7c0-1.2,0.8-2.3,2-2.7c36.8-11.6,62.4-43.9,62.4-80.8v-13.8c0-46.6-40.6-85.5-90.5-86.5
		c-25.1-0.5-48.7,8.2-66.7,24.3c-17.8,16.2-27.8,37.9-27.8,61.1c0,14.4,12.7,26.1,28.2,26.1s28.1-11.6,28.1-26
		c0-9,3.8-17.6,10.8-23.9c7-6.4,16.2-9.8,26.1-9.6c19.6,0.4,35.5,15.9,35.5,34.6V205c0,16.2-12.4,30-29.5,33
		c-20.2,3.4-34.9,19.7-34.9,38.7V307.3z"/>
	
		<radialGradient id="SVGID_00000101782884788019153500000003993602363158743224_" cx="52.4327" cy="827.2492" r="11" gradientTransform="matrix(2.812004e-16 4.5924 1.7023 -1.042377e-16 -1180.2006 41.9162)" gradientUnits="userSpaceOnUse">
		<stop  offset="0" style="stop-color:#C3BBD0"/>
		<stop  offset="1" style="stop-color:#C3BBD0;stop-opacity:0"/>
	</radialGradient>
	<path style="fill:url(#SVGID_00000101782884788019153500000003993602363158743224_);" d="M227.5,307.3c0,14.3,12.6,26,28.1,26
		s28.1-11.6,28.1-26.1v-18.7c0-1.2,0.8-2.3,2-2.7c36.8-11.6,62.4-43.9,62.4-80.8v-13.8c0-46.6-40.6-85.5-90.5-86.5
		c-25.1-0.5-48.7,8.2-66.7,24.3c-17.8,16.2-27.8,37.9-27.8,61.1c0,14.4,12.7,26.1,28.2,26.1s28.1-11.6,28.1-26
		c0-9,3.8-17.6,10.8-23.9c7-6.4,16.2-9.8,26.1-9.6c19.6,0.4,35.5,15.9,35.5,34.6V205c0,16.2-12.4,30-29.5,33
		c-20.2,3.4-34.9,19.7-34.9,38.7V307.3z"/>
	
		<radialGradient id="SVGID_00000145776680538198724110000004571465794771125892_" cx="-27.9248" cy="893.2781" r="11" gradientTransform="matrix(-4.1557 4.1056 1.5219 1.5405 -1226.5559 -1024.9645)" gradientUnits="userSpaceOnUse">
		<stop  offset="0" style="stop-color:#C3BBD0"/>
		<stop  offset="1" style="stop-color:#C3BBD0;stop-opacity:0"/>
	</radialGradient>
	<path style="fill:url(#SVGID_00000145776680538198724110000004571465794771125892_);" d="M227.5,307.3c0,14.3,12.6,26,28.1,26
		s28.1-11.6,28.1-26.1v-18.7c0-1.2,0.8-2.3,2-2.7c36.8-11.6,62.4-43.9,62.4-80.8v-13.8c0-46.6-40.6-85.5-90.5-86.5
		c-25.1-0.5-48.7,8.2-66.7,24.3c-17.8,16.2-27.8,37.9-27.8,61.1c0,14.4,12.7,26.1,28.2,26.1s28.1-11.6,28.1-26
		c0-9,3.8-17.6,10.8-23.9c7-6.4,16.2-9.8,26.1-9.6c19.6,0.4,35.5,15.9,35.5,34.6V205c0,16.2-12.4,30-29.5,33
		c-20.2,3.4-34.9,19.7-34.9,38.7V307.3z"/>
	
		<radialGradient id="SVGID_00000066492392412960118520000009108073708891749260_" cx="19.9827" cy="729.6462" r="11" gradientTransform="matrix(-1.1277 5.25 5.25 1.1277 -3632.5938 -699.3959)" gradientUnits="userSpaceOnUse">
		<stop  offset="0" style="stop-color:#C3BBD0"/>
		<stop  offset="1" style="stop-color:#C3BBD0;stop-opacity:0"/>
	</radialGradient>
	<path style="fill:url(#SVGID_00000066492392412960118520000009108073708891749260_);" d="M227.5,307.3c0,14.3,12.6,26,28.1,26
		s28.1-11.6,28.1-26.1v-18.7c0-1.2,0.8-2.3,2-2.7c36.8-11.6,62.4-43.9,62.4-80.8v-13.8c0-46.6-40.6-85.5-90.5-86.5
		c-25.1-0.5-48.7,8.2-66.7,24.3c-17.8,16.2-27.8,37.9-27.8,61.1c0,14.4,12.7,26.1,28.2,26.1s28.1-11.6,28.1-26
		c0-9,3.8-17.6,10.8-23.9c7-6.4,16.2-9.8,26.1-9.6c19.6,0.4,35.5,15.9,35.5,34.6V205c0,16.2-12.4,30-29.5,33
		c-20.2,3.4-34.9,19.7-34.9,38.7V307.3z"/>
	
		<radialGradient id="SVGID_00000014595587139735633930000017352722088207861888_" cx="-123.5279" cy="836.7056" r="11.0001" gradientTransform="matrix(-3.4049 0 0 2.9722 -165.0082 -2153.6096)" gradientUnits="userSpaceOnUse">
		<stop  offset="0" style="stop-color:#C3BBD0"/>
		<stop  offset="1" style="stop-color:#C3BBD0;stop-opacity:0"/>
	</radialGradient>
	<path style="fill:url(#SVGID_00000014595587139735633930000017352722088207861888_);" d="M227.5,307.3c0,14.3,12.6,26,28.1,26
		s28.1-11.6,28.1-26.1v-18.7c0-1.2,0.8-2.3,2-2.7c36.8-11.6,62.4-43.9,62.4-80.8v-13.8c0-46.6-40.6-85.5-90.5-86.5
		c-25.1-0.5-48.7,8.2-66.7,24.3c-17.8,16.2-27.8,37.9-27.8,61.1c0,14.4,12.7,26.1,28.2,26.1s28.1-11.6,28.1-26
		c0-9,3.8-17.6,10.8-23.9c7-6.4,16.2-9.8,26.1-9.6c19.6,0.4,35.5,15.9,35.5,34.6V205c0,16.2-12.4,30-29.5,33
		c-20.2,3.4-34.9,19.7-34.9,38.7V307.3z"/>
	
		<radialGradient id="SVGID_00000086687610520146510490000005334114568364328844_" cx="72.1944" cy="816.9874" r="11" gradientTransform="matrix(2.449294e-16 4 2.2133 -1.355243e-16 -1520.646 20)" gradientUnits="userSpaceOnUse">
		<stop  offset="0" style="stop-color:#B2A6C7"/>
		<stop  offset="1" style="stop-color:#B2A6C7;stop-opacity:0"/>
	</radialGradient>
	<path style="fill:url(#SVGID_00000086687610520146510490000005334114568364328844_);" d="M227.5,307.3c0,14.3,12.6,26,28.1,26
		s28.1-11.6,28.1-26.1v-18.7c0-1.2,0.8-2.3,2-2.7c36.8-11.6,62.4-43.9,62.4-80.8v-13.8c0-46.6-40.6-85.5-90.5-86.5
		c-25.1-0.5-48.7,8.2-66.7,24.3c-17.8,16.2-27.8,37.9-27.8,61.1c0,14.4,12.7,26.1,28.2,26.1s28.1-11.6,28.1-26
		c0-9,3.8-17.6,10.8-23.9c7-6.4,16.2-9.8,26.1-9.6c19.6,0.4,35.5,15.9,35.5,34.6V205c0,16.2-12.4,30-29.5,33
		c-20.2,3.4-34.9,19.7-34.9,38.7V307.3z"/>
	
		<radialGradient id="SVGID_00000034811286530746476870000005528217809632137918_" cx="-27.1678" cy="810.1797" r="11" gradientTransform="matrix(-5.1249 8.7847 3.4162 1.993 -2537.5447 -1139.4077)" gradientUnits="userSpaceOnUse">
		<stop  offset="0" style="stop-color:#B2A6C7"/>
		<stop  offset="1" style="stop-color:#B2A6C7;stop-opacity:0"/>
	</radialGradient>
	<path style="fill:url(#SVGID_00000034811286530746476870000005528217809632137918_);" d="M227.5,307.3c0,14.3,12.6,26,28.1,26
		s28.1-11.6,28.1-26.1v-18.7c0-1.2,0.8-2.3,2-2.7c36.8-11.6,62.4-43.9,62.4-80.8v-13.8c0-46.6-40.6-85.5-90.5-86.5
		c-25.1-0.5-48.7,8.2-66.7,24.3c-17.8,16.2-27.8,37.9-27.8,61.1c0,14.4,12.7,26.1,28.2,26.1s28.1-11.6,28.1-26
		c0-9,3.8-17.6,10.8-23.9c7-6.4,16.2-9.8,26.1-9.6c19.6,0.4,35.5,15.9,35.5,34.6V205c0,16.2-12.4,30-29.5,33
		c-20.2,3.4-34.9,19.7-34.9,38.7V307.3z"/>
	
		<radialGradient id="SVGID_00000134243385415952905560000013139592602352652451_" cx="-83.84" cy="877.9763" r="11" gradientTransform="matrix(-2.9687 1.2969 1.0409 2.3826 -846.1195 -1706.5366)" gradientUnits="userSpaceOnUse">
		<stop  offset="0" style="stop-color:#B2A6C7"/>
		<stop  offset="1" style="stop-color:#B2A6C7;stop-opacity:0"/>
	</radialGradient>
	<path style="fill:url(#SVGID_00000134243385415952905560000013139592602352652451_);" d="M227.5,307.3c0,14.3,12.6,26,28.1,26
		s28.1-11.6,28.1-26.1v-18.7c0-1.2,0.8-2.3,2-2.7c36.8-11.6,62.4-43.9,62.4-80.8v-13.8c0-46.6-40.6-85.5-90.5-86.5
		c-25.1-0.5-48.7,8.2-66.7,24.3c-17.8,16.2-27.8,37.9-27.8,61.1c0,14.4,12.7,26.1,28.2,26.1s28.1-11.6,28.1-26
		c0-9,3.8-17.6,10.8-23.9c7-6.4,16.2-9.8,26.1-9.6c19.6,0.4,35.5,15.9,35.5,34.6V205c0,16.2-12.4,30-29.5,33
		c-20.2,3.4-34.9,19.7-34.9,38.7V307.3z"/>
	
		<radialGradient id="SVGID_00000012437310486136219130000018269962430653384850_" cx="-11.112" cy="701.9402" r="11" gradientTransform="matrix(7.603037e-16 12.4167 11.2174 -6.868676e-16 -7618.3506 356.918)" gradientUnits="userSpaceOnUse">
		<stop  offset="0.7499" style="stop-color:#B2A6C7;stop-opacity:0"/>
		<stop  offset="1" style="stop-color:#B2A6C7"/>
	</radialGradient>
	<path style="fill:url(#SVGID_00000012437310486136219130000018269962430653384850_);" d="M227.5,307.3c0,14.3,12.6,26,28.1,26
		s28.1-11.6,28.1-26.1v-18.7c0-1.2,0.8-2.3,2-2.7c36.8-11.6,62.4-43.9,62.4-80.8v-13.8c0-46.6-40.6-85.5-90.5-86.5
		c-25.1-0.5-48.7,8.2-66.7,24.3c-17.8,16.2-27.8,37.9-27.8,61.1c0,14.4,12.7,26.1,28.2,26.1s28.1-11.6,28.1-26
		c0-9,3.8-17.6,10.8-23.9c7-6.4,16.2-9.8,26.1-9.6c19.6,0.4,35.5,15.9,35.5,34.6V205c0,16.2-12.4,30-29.5,33
		c-20.2,3.4-34.9,19.7-34.9,38.7V307.3z"/>
	
		<radialGradient id="SVGID_00000170966246096920917050000000503803488515261835_" cx="14.1987" cy="724.5497" r="11" gradientTransform="matrix(3.876663e-16 6.3311 5.8959 -3.610222e-16 -4016.3086 105.2428)" gradientUnits="userSpaceOnUse">
		<stop  offset="0.2448" style="stop-color:#A599B9"/>
		<stop  offset="0.8854" style="stop-color:#A599B9;stop-opacity:0"/>
	</radialGradient>
	<path style="fill:url(#SVGID_00000170966246096920917050000000503803488515261835_);" d="M227.5,307.3c0,14.3,12.6,26,28.1,26
		s28.1-11.6,28.1-26.1v-18.7c0-1.2,0.8-2.3,2-2.7c36.8-11.6,62.4-43.9,62.4-80.8v-13.8c0-46.6-40.6-85.5-90.5-86.5
		c-25.1-0.5-48.7,8.2-66.7,24.3c-17.8,16.2-27.8,37.9-27.8,61.1c0,14.4,12.7,26.1,28.2,26.1s28.1-11.6,28.1-26
		c0-9,3.8-17.6,10.8-23.9c7-6.4,16.2-9.8,26.1-9.6c19.6,0.4,35.5,15.9,35.5,34.6V205c0,16.2-12.4,30-29.5,33
		c-20.2,3.4-34.9,19.7-34.9,38.7V307.3z"/>
	
		<radialGradient id="SVGID_00000113346662128636487720000002713460359945030287_" cx="0.3336" cy="827.661" r="11" gradientTransform="matrix(-2.6562 2.6562 2.6562 2.6562 -1931.33 -1827.3302)" gradientUnits="userSpaceOnUse">
		<stop  offset="0" style="stop-color:#FEFDFF"/>
		<stop  offset="0.6118" style="stop-color:#D6C9EF"/>
		<stop  offset="1" style="stop-color:#B5ABCA"/>
	</radialGradient>
	<path style="fill:url(#SVGID_00000113346662128636487720000002713460359945030287_);" d="M227.1,380.3c0,15.1,12.4,27.5,27.5,27.5
		c15.1,0,27.5-12.4,27.5-27.5c0-15.1-12.4-27.5-27.5-27.5C239.4,352.8,227.1,365.2,227.1,380.3z"/>
</g>
</svg>
